<?xml version="1.0" encoding="utf-8"?>
<!-- Generator: Adobe Illustrator 22.0.1, SVG Export Plug-In . SVG Version: 6.00 Build 0)  -->
<svg version="1.1" id="Layer_1" xmlns="http://www.w3.org/2000/svg" xmlns:xlink="http://www.w3.org/1999/xlink" x="0px" y="0px"
	 viewBox="0 0 892.1 770.1" style="enable-background:new 0 0 892.1 770.1;" xml:space="preserve">
<style type="text/css">
	.st0{fill:#FFFFFF;}
</style>
<g>
	<title>logo</title>
	<path class="st0" d="M723.7,19.1C672,27.9,621.9,38.9,573.1,57.5c-45,16.9-87.3,40.5-125.4,69.8C409.6,98,367.4,74.4,322.4,57.5
		c-48.8-18.6-99-29.6-150.6-38.4l-33.5-5.8v436.9l26.2,2.5C217.7,457.6,269,470,315,489.1c43.8,18.2,82.4,42.6,112.5,72.3l20.1,19.9
		l20.2-19.9c30.1-29.7,68.7-54.1,112.5-72.3c46-19.1,97.3-31.5,150.6-36.5l26.2-2.5V13.3L723.7,19.1z M699.6,398.4
		c-49.9,6.8-97.8,19.4-141.2,37.6c-41.3,17.2-78.9,39.4-110.7,66.1c-31.7-26.8-69.3-48.9-110.6-66.1
		c-43.5-18.1-91.4-30.8-141.3-37.6V81.9c36.4,7.2,71.8,16.3,106,29.3c44,16.7,86.4,40.2,127.2,74.9l18.6,15.9l18.7-15.9
		c40.8-34.7,83.2-58.2,127.2-74.9c34.3-13,69.7-22.1,106.1-29.3L699.6,398.4L699.6,398.4z"/>
	<path class="st0" d="M597,178.1c-56.7,24.3-109.1,54.6-145.6,89.3c-36.1-38.4-89.3-69-147.6-91.7c-14.9-5.7-30-11-45.3-15.8v60.4
		c8.2,2.9,16.4,5.9,24.5,9c62,24.2,116.3,57.3,142.9,98.1l22.4,34.4l24.7-32.7c28.2-37.4,83.9-71.3,146.6-98.1
		c7.2-3.1,14.6-6.1,21.9-9v-61.5C626.5,166,611.6,171.9,597,178.1z M842.3,114.5c-8.5,0.6-17.5,1.4-27,2.6v374.7
		c-71.3,4-142.6,25.1-204.5,54.4c-65.5,30.9-121.4,71.5-156.9,111.1c-40.5-45-98.3-83.2-162.5-110.4c-68-28.8-141.2-45.5-211.3-44.8
		V127.1c-10.2-0.4-20-0.6-29.4-0.4l-28.2,0.6v436.1l31.3-2.8c69-6.2,145.2,9.3,215.4,39c68.6,29,128.2,71.5,161.2,120.3l24.9,36.8
		l23.4-37.8c24.6-39.7,83.3-86.2,156.8-120.9c63.5-30,137.1-50.5,208.4-49.7l29.2,0.3V112.5L842.3,114.5z"/>
</g>
</svg>
